<?xml version="1.0" encoding="utf-8"?><svg xmlns="http://www.w3.org/2000/svg" xmlns:xlink="http://www.w3.org/1999/xlink"><symbol fill="none" viewBox="0 0 20 20" id="facebook"><g clip-path="url(#aa)"><path d="M13.33 3.32h1.827V.14a23.576 23.576 0 0 0-2.66-.14C9.864 0 8.06 1.656 8.06 4.7v2.8H5.156v3.555H8.06V20h3.561v-8.944h2.788l.442-3.555h-3.23V5.05c0-1.027.277-1.73 1.709-1.73z" fill="#fff"/></g><defs><clipPath id="aa"><path fill="#fff" d="M0 0h20v20H0z"/></clipPath></defs></symbol><symbol fill="none" viewBox="0 0 20 20" id="instagram"><g clip-path="url(#ba)" fill="#fff"><path d="M14.48 0H5.52A5.525 5.525 0 0 0 0 5.52v8.96A5.525 5.525 0 0 0 5.52 20h8.96A5.526 5.526 0 0 0 20 14.48V5.52A5.525 5.525 0 0 0 14.48 0zm3.745 14.48a3.75 3.75 0 0 1-3.744 3.745H5.519a3.749 3.749 0 0 1-3.745-3.744V5.519A3.749 3.749 0 0 1 5.52 1.774h8.961a3.75 3.75 0 0 1 3.745 3.745v8.962z"/><path d="M10 4.847A5.16 5.16 0 0 0 4.847 10 5.16 5.16 0 0 0 10 15.153 5.16 5.16 0 0 0 15.154 10 5.16 5.16 0 0 0 10 4.847zm0 8.532a3.383 3.383 0 0 1-3.379-3.38 3.383 3.383 0 0 1 3.38-3.378A3.383 3.383 0 0 1 13.378 10 3.383 3.383 0 0 1 10 13.379zm5.37-10.037a1.306 1.306 0 0 0-1.302 1.301 1.309 1.309 0 0 0 1.302 1.302c.343 0 .678-.14.92-.381a1.307 1.307 0 0 0 0-1.84 1.307 1.307 0 0 0-.92-.382z"/></g><defs><clipPath id="ba"><path fill="#fff" d="M0 0h20v20H0z"/></clipPath></defs></symbol><symbol fill="none" viewBox="0 0 20 20" id="linkedin"><path d="M2.89 1.016c-1.376 0-2.275.903-2.275 2.09 0 1.16.872 2.088 2.221 2.088h.026c1.402 0 2.275-.928 2.275-2.089-.027-1.186-.873-2.09-2.248-2.09zM.853 6.845h4.019v12.093H.852V6.845zm13.885-.284c-2.168 0-3.622 2.038-3.622 2.038V6.845h-4.02v12.093h4.02v-6.753c0-.362.026-.723.132-.981.29-.722.952-1.47 2.062-1.47 1.454 0 2.036 1.109 2.036 2.734v6.47h4.02v-6.934c0-3.714-1.984-5.443-4.628-5.443z" fill="#fff"/></symbol></svg>